<?xml version="1.0" encoding="iso-8859-1"?>
<!-- Uploaded to: SVG Repo, www.svgrepo.com, Generator: SVG Repo Mixer Tools -->
<svg fill="#000000" height="800px" width="800px" version="1.1" id="Layer_1" xmlns="http://www.w3.org/2000/svg" xmlns:xlink="http://www.w3.org/1999/xlink" 
	 viewBox="0 0 512.003 512.003" xml:space="preserve">
<g>
	<g>
		<path d="M492,266.002H20c-11.028,0-20,8.972-20,20v24c0,2.208,1.788,4,4,4s4-1.792,4-4v-24c0-6.616,5.384-12,12-12h472
			c6.616,0,12,5.384,12,12v24c0,2.208,1.788,4,4,4c2.212,0,4-1.792,4-4v-24C512,274.974,503.028,266.002,492,266.002z"/>
	</g>
</g>
<g>
	<g>
		<path d="M484,370.002H28c-2.212,0-4,1.792-4,4s1.788,4,4,4h456c2.212,0,4-1.792,4-4S486.212,370.002,484,370.002z"/>
	</g>
</g>
<g>
	<g>
		<path d="M508,306.002h-48c-2.212,0-4,1.792-4,4s1.788,4,4,4h44v60c0,2.208,1.788,4,4,4c2.212,0,4-1.792,4-4v-64
			C512,307.794,510.212,306.002,508,306.002z"/>
	</g>
</g>
<g>
	<g>
		<path d="M428,306.002H4c-2.212,0-4,1.792-4,4v64c0,2.208,1.788,4,4,4s4-1.792,4-4v-60h420c2.212,0,4-1.792,4-4
			S430.212,306.002,428,306.002z"/>
	</g>
</g>
<g>
	<g>
		<path d="M28,370.002c-2.212,0-4,1.792-4,4v40H8v-40c0-2.208-1.788-4-4-4s-4,1.792-4,4v44c0,2.208,1.788,4,4,4h24
			c2.212,0,4-1.792,4-4v-44C32,371.794,30.212,370.002,28,370.002z"/>
	</g>
</g>
<g>
	<g>
		<path d="M508,370.002c-2.212,0-4,1.792-4,4v40h-16v-40c0-2.208-1.788-4-4-4c-2.212,0-4,1.792-4,4v44c0,2.208,1.788,4,4,4h24
			c2.212,0,4-1.792,4-4v-44C512,371.794,510.212,370.002,508,370.002z"/>
	</g>
</g>
<g>
	<g>
		<path d="M468,90.002H44c-11.028,0-20,8.972-20,20v100c0,2.208,1.788,4,4,4s4-1.792,4-4v-100c0-6.616,5.384-12,12-12h424
			c6.616,0,12,5.384,12,12v100c0,2.208,1.788,4,4,4c2.212,0,4-1.792,4-4v-100C488,98.974,479.028,90.002,468,90.002z"/>
	</g>
</g>
<g>
	<g>
		<path d="M29.268,206.206c-2.112-0.708-4.364,0.436-5.06,2.528l-24,72c-0.7,2.096,0.436,4.36,2.528,5.06
			c0.42,0.14,0.848,0.208,1.264,0.208c1.676,0,3.236-1.06,3.796-2.736l24-72C32.496,209.17,31.36,206.906,29.268,206.206z"/>
	</g>
</g>
<g>
	<g>
		<path d="M511.796,280.734l-24-72c-0.696-2.092-2.952-3.232-5.06-2.528c-2.096,0.7-3.228,2.964-2.528,5.06l24,72
			c0.556,1.676,2.116,2.736,3.792,2.736c0.416,0,0.844-0.064,1.268-0.208C511.364,285.094,512.496,282.83,511.796,280.734z"/>
	</g>
</g>
<g>
	<g>
		<path d="M484,206.002h-36c-2.212,0-4,1.792-4,4s1.788,4,4,4h36c2.212,0,4-1.792,4-4S486.212,206.002,484,206.002z"/>
	</g>
</g>
<g>
	<g>
		<path d="M64,206.002H28c-2.212,0-4,1.792-4,4s1.788,4,4,4h36c2.212,0,4-1.792,4-4S66.212,206.002,64,206.002z"/>
	</g>
</g>
<g>
	<g>
		<path d="M256,154.002c2.212,0,4-1.792,4-4v-4c0-11.028-8.972-20-20-20H80c-11.028,0-20,8.972-20,20v64c0,11.028,8.972,20,20,20
			h160c11.028,0,20-8.972,20-20v-32c0-2.208-1.788-4-4-4c-2.212,0-4,1.792-4,4v32c0,6.616-5.384,12-12,12H80
			c-6.616,0-12-5.384-12-12v-64c0-6.616,5.384-12,12-12h160c6.616,0,12,5.384,12,12v4C252,152.21,253.788,154.002,256,154.002z"/>
	</g>
</g>
<g>
	<g>
		<path d="M432,126.002H272c-11.028,0-20,8.972-20,20c0,2.208,1.788,4,4,4c2.212,0,4-1.792,4-4c0-6.616,5.384-12,12-12h160
			c6.616,0,12,5.384,12,12v64c0,6.616-5.384,12-12,12H272c-6.616,0-12-5.384-12-12c0-2.208-1.788-4-4-4c-2.212,0-4,1.792-4,4
			c0,11.028,8.972,20,20,20h160c11.028,0,20-8.972,20-20v-64C452,134.974,443.028,126.002,432,126.002z"/>
	</g>
</g>
</svg>